<svg role="img" viewBox="0 0 24 24" xmlns="http://www.w3.org/2000/svg">
  <title>Instagram</title>
  <path d="M12 2.163c3.204 0 3.584.012 4.85.07 1.17.054 1.97.24 2.422.415a4.92 4.92 0 0 1 1.675 1.087 4.92 4.92 0 0 1 1.087 1.675c.175.451.36 1.251.415 2.422.058 1.266.07 1.645.07 4.85s-.012 3.584-.07 4.85c-.054 1.17-.24 1.97-.415 2.422a4.92 4.92 0 0 1-1.087 1.675 4.92 4.92 0 0 1-1.675 1.087c-.451.175-1.251.36-2.422.415-1.266.058-1.645.07-4.85.07s-3.584-.012-4.85-.07c-1.17-.054-1.97-.24-2.422-.415a4.92 4.92 0 0 1-1.675-1.087 4.92 4.92 0 0 1-1.087-1.675c-.175-.451-.36-1.251-.415-2.422C2.175 15.746 2.163 15.367 2.163 12s.012-3.584.07-4.85c.054-1.17.24-1.97.415-2.422a4.92 4.92 0 0 1 1.087-1.675 4.92 4.92 0 0 1 1.675-1.087c.451-.175 1.251-.36 2.422-.415C8.416 2.175 8.796 2.163 12 2.163zm0-2.163C8.741 0 8.332.013 7.052.072 5.75.131 4.665.368 3.75.702a6.906 6.906 0 0 0-2.5 1.64A6.906 6.906 0 0 0 .702 4.78C.368 5.695.131 6.78.072 8.082.013 9.362 0 9.771 0 12c0 2.229.013 2.638.072 3.918.059 1.302.296 2.387.63 3.302a6.906 6.906 0 0 0 1.64 2.5 6.906 6.906 0 0 0 2.5 1.64c.915.334 2 .571 3.302.63 1.28.059 1.689.072 3.918.072s2.638-.013 3.918-.072c1.302-.059 2.387-.296 3.302-.63a6.906 6.906 0 0 0 2.5-1.64 6.906 6.906 0 0 0 1.64-2.5c.334-.915.571-2 .63-3.302.059-1.28.072-1.689.072-3.918s-.013-2.638-.072-3.918c-.059-1.302-.296-2.387-.63-3.302a6.906 6.906 0 0 0-1.64-2.5 6.906 6.906 0 0 0-2.5-1.64c-.915-.334-2-.571-3.302-.63C14.638.013 14.229 0 12 0z"/>
</svg>
