<svg xmlns="http://www.w3.org/2000/svg" width="24" height="24" viewBox="0 0 24 24" fill="black">
  <path d="M12 2.163c3.204 0 3.584.012 4.85.07 1.17.054 1.97.24 2.422.415a4.92 4.92 0 011.675 1.087 4.92 4.92 0 011.087 1.675c.175.451.36 1.251.415 2.422.058 1.266.07 1.645.07 4.85s-.012 3.584-.07 4.85c-.054 1.17-.24 1.97-.415 2.422a4.92 4.92 0 01-1.087 1.675 4.92 4.92 0 01-1.675 1.087c-.451.175-1.251.36-2.422.415-1.266.058-1.645.07-4.85.07s-3.584-.012-4.85-.07c-1.17-.054-1.97-.24-2.422-.415a4.902 4.902 0 01-1.675-1.087 4.92 4.92 0 01-1.087-1.675c-.175-.451-.36-1.251-.415-2.422C2.175 15.746 2.163 15.367 2.163 12s.012-3.584.07-4.85c.054-1.17.24-1.97.415-2.422a4.92 4.92 0 011.087-1.675 4.92 4.92 0 011.675-1.087c.451-.175 1.251-.36 2.422-.415 1.266-.058 1.645-.07 4.85-.07zm0-2.163C8.741 0 8.332.013 7.052.072 5.75.131 4.665.368 3.75.702a6.92 6.92 0 00-2.5 1.64A6.92 6.92 0 00.702 4.78c-.334.915-.571 2-.63 3.302C.013 9.362 0 9.771 0 12c0 2.229.013 2.638.072 3.918.059 1.302.296 2.387.63 3.302a6.92 6.92 0 001.64 2.5 6.92 6.92 0 002.5 1.64c.915.334 2 .571 3.302.63 1.28.059 1.689.072 3.918.072s2.638-.013 3.918-.072c1.302-.059 2.387-.296 3.302-.63a6.92 6.92 0 002.5-1.64 6.92 6.92 0 001.64-2.5c.334-.915.571-2 .63-3.302.059-1.28.072-1.689.072-3.918s-.013-2.638-.072-3.918c-.059-1.302-.296-2.387-.63-3.302a6.92 6.92 0 00-1.64-2.5 6.92 6.92 0 00-2.5-1.64c-.915-.334-2-.571-3.302-.63C14.638.013 14.229 0 12 0z"/>
  <path d="M12 5.838A6.162 6.162 0 105.838 12 6.151 6.151 0 0012 5.838m0-2.163A8.325 8.325 0 113.675 12 8.315 8.315 0 0112 3.675z"/>
  <circle cx="18.406" cy="5.594" r="1.44"/>
</svg>
